<svg width="407" height="314" viewBox="0 0 407 314" fill="none" xmlns="http://www.w3.org/2000/svg">
<g clip-path="url(#clip0_274_109)">
<circle class="eye" cx="147.567" cy="151.975" r="14.2807" fill="#1B1B1B"/>
<circle class="eye" cx="283.234" cy="151.975" r="14.2807" fill="#1B1B1B"/>
<path d="M397.716 165.577C396.432 165.215 395.176 164.917 393.937 164.687C393.595 164.619 393.248 164.563 392.906 164.51C392.278 164.406 391.655 164.325 391.031 164.253C389.067 164.039 387.127 163.963 385.179 164.015C384.772 164.031 384.361 164.043 383.947 164.068L387.762 152.182C388.141 151.011 387.497 149.759 386.334 149.381C385.162 149.01 383.911 149.646 383.532 150.818L379.214 164.253C379.198 164.313 379.185 164.365 379.169 164.422C379.169 164.458 379.161 164.502 379.153 164.538V164.547H379.137C377.507 164.784 375.853 165.086 374.15 165.444C373.728 165.541 373.297 165.629 372.866 165.726C372.001 165.919 371.124 166.124 370.23 166.35C369.787 166.454 369.332 166.571 368.882 166.684C368.415 166.8 367.964 166.929 367.505 167.046V167.038L372.657 155.627C373.16 154.508 372.665 153.188 371.546 152.685C370.427 152.182 369.107 152.677 368.604 153.796L362.112 168.185C362.088 168.237 362.068 168.282 362.051 168.334C362.035 168.386 362.023 168.439 362.007 168.491C362.007 168.491 362.007 168.483 361.999 168.491C360.993 168.757 359.991 169.03 358.993 169.308C357.998 169.582 357 169.855 356.006 170.129V170.121L359.222 154.078C359.468 152.878 358.687 151.699 357.479 151.462C356.28 151.216 355.109 152.001 354.863 153.204L351.249 171.232C351.241 171.268 351.233 171.304 351.233 171.345C351.233 171.373 351.225 171.413 351.225 171.449C351.216 171.449 351.216 171.457 351.208 171.457C350.838 171.562 350.476 171.659 350.114 171.759C347.312 172.536 344.6 173.293 341.991 174.005C341.472 174.146 340.953 174.287 340.442 174.428V174.42L340.732 154.746C340.756 153.514 339.77 152.508 338.546 152.492C337.314 152.468 336.308 153.454 336.284 154.678L335.974 175.603C335.499 175.72 335.032 175.84 334.566 175.957C324.097 178.593 314.031 180.388 303.445 181.656C310.915 179.278 319.207 176.335 328.343 172.81C329.486 172.367 330.054 171.083 329.619 169.936C329.176 168.793 327.884 168.225 326.745 168.66C322.728 170.21 318.876 171.646 315.178 172.975C313.946 173.417 312.73 173.848 311.531 174.263C310.931 174.472 310.34 174.677 309.744 174.878C309.253 175.047 308.782 175.212 308.307 175.369C307.269 175.724 306.238 176.066 305.224 176.4C304.564 176.613 303.912 176.83 303.268 177.036C301.98 177.45 300.712 177.853 299.468 178.227C297.609 178.799 295.802 179.33 294.043 179.829V162.393C294.043 162.12 294.015 161.854 293.954 161.6C298.824 155.889 301.763 148.507 301.763 140.466L301.851 135.346H304.918C305.969 135.346 306.987 134.903 307.703 134.13C308.4 133.382 308.762 132.376 308.71 131.357C308.71 129.647 308.541 127.976 308.227 126.354H322.173C323.396 126.354 324.395 125.36 324.395 124.133C324.395 122.905 323.392 121.911 322.173 121.911H306.967C305.953 119.234 304.516 116.767 302.745 114.582C302.684 114.513 302.628 114.441 302.568 114.372C302.499 114.312 302.443 114.239 302.382 114.171L302.391 114.163H302.399C302.467 114.095 302.531 114.03 302.608 113.962C302.68 113.893 302.765 113.821 302.845 113.74C302.934 113.66 303.022 113.571 303.111 113.487C303.163 113.434 303.224 113.382 303.28 113.322C303.489 113.112 303.719 112.891 303.956 112.654C304.081 112.529 304.21 112.4 304.335 112.275C304.721 111.881 305.135 111.454 305.578 110.979C306.081 110.432 306.629 109.832 307.216 109.172C307.667 108.653 308.142 108.105 308.625 107.518C308.943 107.131 309.269 106.733 309.611 106.326C311.789 103.598 314.191 100.273 316.494 96.381C316.671 96.0831 316.848 95.7813 317.021 95.4754C317.198 95.1655 317.375 94.8596 317.548 94.5497C317.653 94.3645 317.762 94.1713 317.866 93.9781C318.015 93.7125 318.164 93.4388 318.305 93.1611C318.498 92.8069 318.683 92.4487 318.868 92.0864C319.009 91.8208 319.15 91.5471 319.283 91.2694C320.297 89.2529 321.263 87.1197 322.145 84.8738C322.374 84.2822 322.604 83.6865 322.825 83.0787C323.123 82.2697 323.404 81.4486 323.678 80.6115C323.795 80.2613 323.908 79.9152 324.012 79.565C324.093 79.3114 324.169 79.0619 324.242 78.8083C324.354 78.4581 324.451 78.112 324.552 77.7578C324.709 77.2185 324.853 76.6671 324.994 76.1116C325.099 75.7051 325.204 75.3026 325.296 74.8961C325.823 72.6945 326.258 70.4285 326.584 68.0779C326.644 67.6714 326.697 67.2609 326.745 66.8544C326.789 66.5123 326.826 66.1742 326.862 65.824C326.89 65.5262 326.922 65.2243 326.95 64.9265C326.979 64.6608 327.003 64.3871 327.023 64.1175C327.039 63.9685 327.047 63.8277 327.051 63.6787C327.079 63.3085 327.111 62.9462 327.132 62.5759C327.156 62.1815 327.176 61.7911 327.192 61.3886C327.208 61.0867 327.22 60.7808 327.228 60.4709C327.236 60.2053 327.244 59.9356 327.252 59.67C327.26 59.187 327.268 58.7 327.268 58.2089C327.268 23.4983 313.946 0.182068 301.505 0.182068C298.684 0.182068 296.236 1.24062 294.441 3.26514C289.764 8.50957 290.634 18.612 290.811 20.3065L290.706 58.5269V58.7805C290.706 58.8247 290.706 58.869 290.698 58.9052V59.1145C290.698 59.3439 290.69 59.5734 290.682 59.7947C290.666 60.3783 290.638 60.9579 290.602 61.5214C290.586 61.775 290.565 62.0326 290.541 62.2781C290.525 62.4793 290.505 62.6765 290.481 62.8778C290.429 63.4332 290.356 63.9726 290.28 64.4998C290.272 64.528 290.272 64.5682 290.264 64.6045C290.227 64.8258 290.195 65.0472 290.151 65.2726C290.115 65.5302 290.07 65.7918 290.018 66.0494C289.958 66.3754 289.893 66.7014 289.817 67.0275C289.744 67.3816 289.66 67.7318 289.571 68.0779C289.406 68.7219 289.237 69.3538 289.044 69.9616C288.42 71.9861 287.659 73.7933 286.814 75.3992C286.701 75.6206 286.585 75.8379 286.472 76.0432C286.049 76.82 285.611 77.5405 285.16 78.2207C285.011 78.434 284.87 78.6513 284.721 78.8566C284.58 79.0659 284.439 79.2631 284.299 79.4563L282.97 81.1387C282.821 81.3078 282.681 81.4728 282.54 81.6338L282.109 82.1007C281.976 82.2496 281.835 82.3985 281.695 82.5434C281.67 82.5716 281.65 82.5957 281.626 82.6158C281.433 82.809 281.248 82.9942 281.071 83.1713L280.507 83.6985C280.382 83.8153 280.254 83.928 280.137 84.0326C264.79 58.9334 237.038 42.7735 206.369 42.7735C203.294 42.7735 200.239 42.9345 197.232 43.2564L192.592 37.9436C191.783 37.0179 190.378 36.9213 189.448 37.7303C188.53 38.5393 188.434 39.944 189.239 40.8737L191.96 43.985C167.617 48.0984 146.245 62.4673 133.265 82.9861C133.035 82.7768 132.798 82.5555 132.552 82.3059C132.456 82.2174 132.367 82.1208 132.27 82.0242C131.55 81.2917 130.789 80.4223 130.025 79.4C129.839 79.1464 129.646 78.8888 129.461 78.6232C129.26 78.3414 129.067 78.0436 128.877 77.7417C128.789 77.6089 128.7 77.4761 128.62 77.3352C128.242 76.7355 127.879 76.0915 127.525 75.4073C127.457 75.2745 127.384 75.1497 127.316 75.0088C127.211 74.7955 127.107 74.5781 127.006 74.3568C126.917 74.1797 126.837 73.9945 126.752 73.8094C126.716 73.7289 126.68 73.6484 126.64 73.5639C126.567 73.3948 126.491 73.2137 126.418 73.0366C126.322 72.8233 126.233 72.5939 126.145 72.3604C126.02 72.0344 125.891 71.6923 125.774 71.3542C125.67 71.0644 125.573 70.7706 125.476 70.4728C125.283 69.8731 125.098 69.2492 124.937 68.5972C124.857 68.2792 124.776 67.9451 124.7 67.6111C124.382 66.2265 124.128 64.7373 123.959 63.1515C123.931 62.8536 123.899 62.5598 123.879 62.2539C123.871 62.1815 123.862 62.097 123.854 62.0245C123.83 61.6904 123.81 61.3564 123.786 61.0183C123.77 60.7889 123.762 60.5514 123.758 60.3139C123.742 60.0684 123.734 59.8229 123.734 59.5734C123.726 59.2312 123.718 58.8851 123.718 58.5349C123.718 58.4383 123.71 58.3498 123.693 58.2532C123.677 58.1566 123.657 58.068 123.633 57.9795V57.9513L123.52 19.6706C123.706 17.9721 124.567 7.87363 119.89 2.6292C118.095 0.604682 115.66 -0.461914 112.834 -0.461914C100.393 -0.461914 87.071 22.8664 87.071 57.573C87.071 58.0318 87.079 58.4907 87.0871 58.9455C87.0951 59.2272 87.0951 59.509 87.1112 59.7907C87.1193 60.1087 87.1354 60.4266 87.1474 60.7446C87.1635 61.0988 87.1756 61.457 87.1998 61.8031C87.2239 62.1976 87.2521 62.5799 87.2802 62.9744C87.3084 63.4131 87.3487 63.8558 87.3929 64.2865C87.5097 65.5906 87.6747 66.8785 87.8679 68.1464C87.9283 68.569 87.9927 68.9836 88.0691 69.4062C88.1215 69.708 88.1738 70.0139 88.2261 70.3118C88.2623 70.513 88.2986 70.7062 88.3388 70.9034C88.3911 71.1932 88.4515 71.475 88.5078 71.7567C88.8781 73.6081 89.3249 75.4033 89.8119 77.142C89.9166 77.4841 90.0132 77.8222 90.1138 78.1643C90.2104 78.4903 90.307 78.8083 90.4116 79.1343C90.5082 79.4362 90.6048 79.734 90.7014 80.0319C90.9469 80.7966 91.2045 81.5452 91.4782 82.2778C91.6996 82.9056 91.9371 83.5295 92.1826 84.1373C92.5529 85.0871 92.9392 86.0129 93.3377 86.9225C93.5068 87.3169 93.6798 87.6993 93.8569 88.0857C94.3842 89.2328 94.9316 90.3517 95.487 91.4344C95.6721 91.7966 95.8573 92.1548 96.0505 92.509C96.3242 93.0363 96.614 93.5555 96.8957 94.0586C97.0527 94.3323 97.1976 94.598 97.3546 94.8596C97.5156 95.1494 97.6806 95.4392 97.8496 95.7128C98.0146 95.9946 98.1837 96.2763 98.3527 96.5581C98.6868 97.1055 99.0209 97.6488 99.3589 98.168C101.573 101.642 103.819 104.6 105.819 106.995C106.25 107.506 106.664 107.989 107.063 108.448C107.485 108.923 107.884 109.365 108.262 109.788C108.29 109.816 108.322 109.848 108.342 109.876C108.729 110.283 109.091 110.669 109.425 111.024C109.634 111.233 109.824 111.43 110.009 111.623C110.134 111.756 110.262 111.881 110.379 112.002C110.6 112.215 110.81 112.416 111.003 112.609L110.995 112.617C108.6 115.205 106.729 118.284 105.557 121.694V121.702H96.5617C95.33 121.702 94.3399 122.696 94.3399 123.923C94.3399 125.151 95.3341 126.145 96.5617 126.145H104.467C104.273 127.397 104.177 128.665 104.177 129.969V131.546C104.177 133.643 105.879 135.346 107.976 135.346H110.609V140.216C110.609 148.632 113.816 156.332 119.069 162.136V193.916C119.069 194.91 119.093 195.9 119.137 196.895C119.182 197.776 119.242 198.657 119.314 199.531C119.351 199.99 119.403 200.449 119.447 200.907C119.491 201.322 119.544 201.736 119.596 202.151C119.604 202.232 119.612 202.308 119.624 202.389C119.685 202.811 119.741 203.234 119.801 203.648C119.874 204.099 119.942 204.554 120.023 205.005H120.015C119.858 205.033 119.697 205.065 119.54 205.093C119.415 205.117 119.286 205.138 119.161 205.162C118.051 205.363 116.952 205.56 115.873 205.753C114.368 206.019 112.911 206.281 111.51 206.538C111.236 206.582 110.955 206.635 110.681 206.687C109.023 206.989 107.457 207.271 106.056 207.532C105.634 207.605 105.219 207.689 104.825 207.762C103.521 207.999 102.378 208.213 101.46 208.39C101.259 208.426 101.074 208.462 100.896 208.502C100.393 208.599 99.9788 208.688 99.6528 208.756C97.1251 209.291 94.7182 209.839 92.412 210.37C47.3896 220.722 45.4254 223.966 40.9699 225.391C39.7986 225.769 39.1546 227.021 39.5249 228.184C39.8952 229.355 41.147 229.999 42.3182 229.629C46.653 228.244 61.199 221.479 93.3578 214.713C95.6681 214.222 98.071 213.638 100.599 213.103C100.776 213.067 100.977 213.022 101.206 212.978C101.383 212.942 101.577 212.906 101.79 212.861C103.086 212.608 104.97 212.254 107.236 211.839C107.578 211.779 107.932 211.714 108.286 211.646C109.643 211.392 111.116 211.127 112.665 210.853C113.14 210.764 113.619 210.676 114.118 210.587C115.273 210.378 116.461 210.165 117.676 209.951C117.978 209.899 118.284 209.839 118.586 209.79C118.888 209.73 119.202 209.678 119.504 209.625C119.97 209.537 120.445 209.456 120.92 209.372C120.965 209.565 121.009 209.758 121.061 209.951C125.774 228.506 138.469 243.897 155.261 252.257V295.859L149.948 303.804C149.268 304.826 149.541 306.207 150.556 306.895C150.942 307.148 151.373 307.265 151.791 307.265C152.512 307.265 153.212 306.915 153.643 306.279L155.257 303.864V320.402L150.708 327.132C150.02 328.146 150.286 329.535 151.3 330.223C151.687 330.477 152.117 330.601 152.544 330.601C153.256 330.601 153.961 330.259 154.387 329.623L155.253 328.339V351.096H31.0807C29.0361 351.096 27.3738 352.75 27.3738 354.803C27.3738 356.856 29.032 358.51 31.0807 358.51H383.995C386.04 358.51 387.702 356.852 387.702 354.803C387.702 352.754 386.044 351.096 383.995 351.096H251.057V311.254L256.088 316.321C256.527 316.76 257.094 316.981 257.666 316.981C258.237 316.981 258.801 316.768 259.228 316.337C260.101 315.472 260.109 314.063 259.244 313.19L251.057 304.951V283.796L255.911 289.028C256.35 289.503 256.941 289.741 257.541 289.741C258.08 289.741 258.624 289.548 259.055 289.149C259.952 288.312 260.012 286.911 259.171 286.006L251.057 277.256V255.175C276.104 246.099 294.043 222.074 294.043 193.932V187.094C294.16 187.086 294.28 187.07 294.397 187.066C295.19 186.993 295.967 186.917 296.748 186.844C301.549 186.386 306.202 185.83 310.803 185.162C312.231 184.953 313.656 184.739 315.077 184.51C315.938 184.369 316.788 184.228 317.641 184.079C318.611 183.918 319.589 183.737 320.559 183.56C321.291 183.419 322.028 183.286 322.76 183.137C323.493 182.997 324.23 182.848 324.97 182.699C325.087 182.675 325.208 182.655 325.324 182.626C326.178 182.449 327.027 182.272 327.888 182.087C328.689 181.918 329.482 181.737 330.283 181.552C330.979 181.387 331.676 181.234 332.38 181.061C332.863 180.948 333.35 180.831 333.841 180.71C334.441 180.562 335.04 180.413 335.648 180.26C337.013 179.918 338.425 179.547 339.878 179.165C340.361 179.04 340.848 178.907 341.347 178.77H341.355L354.493 189.553C354.899 189.895 355.402 190.056 355.901 190.056C356.537 190.056 357.185 189.775 357.62 189.239C358.397 188.289 358.256 186.889 357.31 186.112L346.612 177.33C348.145 176.907 349.715 176.468 351.309 176.026C352.931 175.575 354.569 175.108 356.215 174.633L364.708 184.228C365.147 184.723 365.758 184.977 366.374 184.977C366.893 184.977 367.421 184.792 367.843 184.421C368.769 183.604 368.85 182.2 368.037 181.278L360.961 173.281C360.961 173.281 360.985 173.272 360.997 173.272C361.721 173.063 362.458 172.866 363.19 172.665C364.044 172.435 364.901 172.206 365.77 171.989C367.163 171.626 368.572 171.292 369.989 170.974C370.81 170.789 371.619 170.612 372.412 170.435V170.427H372.428V170.435C372.488 170.604 372.569 170.769 372.665 170.918C372.717 170.998 372.77 171.075 372.83 171.139C372.89 171.212 372.955 171.28 373.031 171.349L382.301 179.7C382.723 180.087 383.259 180.28 383.782 180.28C384.398 180.28 384.997 180.026 385.436 179.539C386.257 178.63 386.193 177.229 385.271 176.404L377.491 169.388C378.344 169.231 379.189 169.087 380.027 168.958C380.377 168.905 380.723 168.853 381.077 168.809C381.387 168.765 381.693 168.728 382.003 168.692C382.268 168.664 382.53 168.632 382.796 168.612C383.061 168.583 383.323 168.551 383.589 168.539C383.931 168.511 384.269 168.479 384.611 168.467C384.885 168.443 385.166 168.439 385.448 168.422C385.605 168.414 385.758 168.414 385.915 168.406C389.115 168.318 392.331 168.628 395.748 169.549C396.935 169.875 398.187 169.654 398.726 168.547C399.274 167.452 398.911 165.903 397.724 165.569L397.716 165.577ZM283.321 87.2002C283.928 86.6528 284.58 86.0129 285.261 85.2884C285.462 85.0791 285.655 84.8658 285.844 84.6444C286.021 84.4432 286.206 84.2379 286.384 84.0205C286.569 83.8112 286.754 83.5899 286.923 83.3605C287.064 83.1914 287.197 83.0103 287.345 82.8332C287.575 82.5434 287.796 82.2496 288.014 81.9356C288.199 81.6821 288.376 81.4325 288.553 81.1669C288.738 80.9093 288.915 80.6316 289.092 80.3579C289.1 80.3579 289.1 80.3498 289.1 80.3498C289.269 80.0761 289.451 79.7944 289.62 79.5127C289.805 79.2229 289.974 78.9291 290.147 78.6232C290.308 78.3253 290.481 78.0154 290.65 77.7055L290.626 86.6045C290.618 87.8361 291.612 88.8343 292.839 88.8343H292.847C294.071 88.8343 295.061 87.8482 295.069 86.6206L295.15 58.6758V58.5148L295.254 20.2139L295.246 19.9564C294.936 17.2758 294.787 9.57616 297.766 6.23953C298.728 5.15683 299.923 4.65372 301.501 4.65372C310.195 4.65372 322.821 25.5268 322.821 58.2371C322.821 58.6959 322.813 59.1548 322.805 59.6096C322.797 60.0684 322.781 60.5192 322.76 60.974C322.752 61.2115 322.736 61.4409 322.724 61.6784C322.708 62.0205 322.696 62.3546 322.664 62.6926C322.636 63.1314 322.604 63.558 322.567 63.9887C322.507 64.5884 322.451 65.18 322.382 65.7677C322.338 66.1742 322.286 66.5847 322.225 66.9912C322.181 67.3333 322.137 67.6714 322.076 68.0055C322.048 68.2591 322.004 68.5086 321.964 68.7541C321.903 69.0962 321.847 69.4343 321.786 69.7684C321.734 70.0582 321.682 70.348 321.625 70.6338C321.589 70.8632 321.545 71.0926 321.493 71.322C321.159 72.9682 320.768 74.5661 320.329 76.1318C320.261 76.3773 320.197 76.6228 320.12 76.8562C320.048 77.1219 319.963 77.3915 319.883 77.6491C319.673 78.3253 319.46 78.9894 319.247 79.6415C319.13 79.9916 319.009 80.3378 318.885 80.6799C318.76 81.0502 318.627 81.4124 318.486 81.7746C318.398 82.0202 318.301 82.2697 318.204 82.5152C318.071 82.8694 317.931 83.2276 317.79 83.5738C317.717 83.7509 317.641 83.928 317.568 84.101C317.456 84.3908 317.339 84.6726 317.214 84.9543C315.302 89.4461 313.073 93.4388 310.843 96.8841L307.285 101.951C306.951 102.39 306.625 102.805 306.307 103.211L300.958 109.325C300.853 109.43 300.748 109.538 300.656 109.635L300.056 110.235C299.959 110.331 299.871 110.412 299.79 110.492L299.251 111.003L299.243 111.011C297.85 109.82 296.329 108.774 294.715 107.884C294.514 107.771 294.309 107.663 294.099 107.558C292.876 106.93 291.604 106.387 290.276 105.956C290.046 105.876 289.809 105.799 289.571 105.735C287.837 99.464 285.422 93.5233 282.419 87.973C282.701 87.7436 283.003 87.4779 283.317 87.1962L283.321 87.2002ZM197.816 50.6904L200.496 53.7654C200.935 54.2685 201.547 54.5221 202.171 54.5221C202.69 54.5221 203.209 54.345 203.632 53.9828C204.558 53.1738 204.654 51.7691 203.845 50.8393L203.35 50.2759H203.358C204.364 50.2396 205.383 50.2155 206.397 50.2155C240.782 50.2155 271.137 72.4087 281.505 104.628H262.556C253.235 104.628 244.823 110.021 240.846 118.309C240.697 118.22 240.544 118.131 240.387 118.043C239.663 117.62 238.914 117.226 238.149 116.864C237.666 116.634 237.187 116.421 236.688 116.212C236.201 116.002 235.694 115.813 235.191 115.632V115.624H235.183C234.7 111.104 233.183 106.918 230.872 103.288C229.826 101.658 228.626 100.14 227.286 98.7597C227.137 98.6027 226.988 98.4578 226.835 98.3089C221.663 93.2053 214.555 90.078 206.723 90.078C198.89 90.078 191.718 93.2335 186.538 98.3773C181.966 102.913 178.915 108.995 178.231 115.821H178.223C177.905 115.938 177.587 116.067 177.273 116.2C176.717 116.437 176.162 116.691 175.615 116.948C175.333 117.089 175.051 117.23 174.769 117.379C174.488 117.528 174.206 117.677 173.932 117.83C173.658 117.983 173.385 118.148 173.111 118.313C172.837 118.474 172.572 118.639 172.294 118.816C172.028 118.985 171.767 119.166 171.501 119.343V119.335C168.321 110.541 159.845 104.439 150.266 104.439H131.341C140.892 75.0652 167.174 54.0271 197.816 50.6944V50.6904ZM271.266 190.503C271.294 190.954 271.318 191.413 271.334 191.867C271.351 192 271.351 192.125 271.351 192.262C271.375 192.765 271.379 193.276 271.379 193.787C271.379 221.04 249.202 243.221 221.945 243.221C221.462 243.221 220.987 243.213 220.516 243.197C220.198 243.189 219.88 243.173 219.562 243.161C218.777 243.124 217.993 243.072 217.212 242.996C216.507 242.927 215.803 242.847 215.107 242.75C214.728 242.706 214.358 242.645 213.996 242.585C213.626 242.525 213.255 242.468 212.893 242.392C212.499 242.324 212.116 242.251 211.738 242.171C211.5 242.118 211.271 242.074 211.05 242.022C210.828 241.969 210.607 241.917 210.39 241.865C210.132 241.812 209.878 241.748 209.625 241.68C209.271 241.591 208.904 241.494 208.558 241.398C208.204 241.301 207.846 241.197 207.492 241.088C207.141 240.983 206.795 240.875 206.445 240.762C206.127 240.657 205.821 240.553 205.511 240.444C204.066 239.949 202.646 239.377 201.265 238.741C200.629 238.452 200.005 238.15 199.381 237.832C199.064 237.667 198.746 237.498 198.424 237.329C198.106 237.16 197.788 236.987 197.474 236.809C197.156 236.632 196.842 236.447 196.532 236.262C196.222 236.077 195.916 235.892 195.614 235.699C195.312 235.505 195.006 235.312 194.705 235.119C194.407 234.926 194.105 234.725 193.807 234.511C193.236 234.125 192.664 233.718 192.109 233.296C191.517 232.853 190.937 232.39 190.358 231.919C189.81 231.46 189.267 230.985 188.736 230.51C187.403 229.311 186.136 228.035 184.94 226.687C184.703 226.421 184.465 226.151 184.236 225.878C184.051 225.656 183.866 225.439 183.688 225.218C182.727 224.046 181.813 222.823 180.964 221.559C180.762 221.269 180.569 220.975 180.38 220.67C180.179 220.368 179.986 220.062 179.8 219.752C179.639 219.494 179.482 219.233 179.325 218.967C179.096 218.581 178.875 218.198 178.665 217.804C178.496 217.506 178.339 217.212 178.182 216.914C177.848 216.278 177.53 215.638 177.22 214.986C177.204 214.962 177.196 214.942 177.192 214.918C177.043 214.6 176.894 214.274 176.754 213.956C176.605 213.622 176.456 213.28 176.315 212.942C175.892 211.928 175.498 210.897 175.144 209.843C174.906 209.138 174.685 208.426 174.475 207.717C174.266 207.029 174.081 206.325 173.912 205.621C173.815 205.226 173.727 204.836 173.646 204.441C173.409 203.338 173.204 202.22 173.039 201.084H187.005C195.735 201.084 203.314 196.053 206.985 188.732C207.214 189.191 207.459 189.642 207.709 190.088C207.842 190.31 207.967 190.531 208.107 190.749C208.373 191.187 208.655 191.61 208.969 192.024C209.118 192.234 209.271 192.439 209.428 192.64C209.589 192.85 209.746 193.039 209.911 193.24C210.068 193.441 210.237 193.634 210.414 193.82C210.583 194.013 210.764 194.198 210.941 194.383C211.118 194.568 211.295 194.753 211.48 194.93C211.843 195.285 212.221 195.627 212.615 195.961C212.792 196.118 212.97 196.263 213.155 196.404C213.65 196.81 214.169 197.188 214.704 197.539C214.889 197.663 215.075 197.784 215.26 197.893C215.417 197.997 215.578 198.102 215.743 198.191C215.964 198.323 216.193 198.456 216.423 198.585C216.713 198.742 217.006 198.887 217.304 199.028C217.365 199.064 217.429 199.096 217.506 199.132C217.675 199.213 217.848 199.289 218.017 199.362C218.178 199.434 218.343 199.511 218.512 199.575C219.051 199.805 219.603 200.006 220.158 200.183C220.299 200.235 220.44 200.279 220.589 200.316C220.886 200.412 221.18 200.493 221.486 200.573C221.812 200.654 222.138 200.73 222.464 200.803C222.545 200.819 222.625 200.831 222.718 200.855C223 200.907 223.281 200.96 223.563 200.996C223.644 201.02 223.732 201.024 223.821 201.04C224.139 201.093 224.457 201.129 224.783 201.157C225.117 201.193 225.451 201.225 225.789 201.237C225.861 201.245 225.946 201.245 226.018 201.245C226.368 201.27 226.715 201.274 227.065 201.274H257.654C261.691 201.274 264.975 197.985 264.975 193.952V189.09C265.277 189.106 265.575 189.114 265.881 189.118C266.183 189.135 266.497 189.135 266.815 189.135C267.829 189.135 268.895 189.106 270.006 189.03C270.377 189.006 270.755 188.978 271.133 188.949C271.133 188.949 271.141 188.949 271.133 188.957C271.186 189.469 271.23 189.988 271.258 190.499L271.266 190.503ZM152.805 172.029C152.805 171.687 152.814 171.349 152.834 171.006C152.842 170.934 152.85 170.858 152.85 170.785V170.741C153.272 165.021 156.48 159.701 161.503 156.344H161.511C161.696 156.469 161.89 156.589 162.091 156.706C162.284 156.819 162.485 156.919 162.691 157.024C162.699 157.032 162.707 157.032 162.715 157.04C162.908 157.129 163.113 157.217 163.314 157.298C163.528 157.378 163.745 157.459 163.966 157.527C163.966 157.527 163.975 157.535 163.983 157.535C164.635 157.736 165.315 157.869 166.011 157.922H166.039C166.269 157.946 166.506 157.95 166.736 157.95H176.842C177.458 157.95 178.042 157.793 178.545 157.519C178.855 157.35 179.136 157.141 179.374 156.895C180.018 156.251 180.42 155.354 180.42 154.368V147.722C180.42 145.493 181.724 143.456 183.672 142.571C183.797 142.518 183.926 142.466 184.059 142.422C184.147 142.385 184.236 142.353 184.324 142.333C184.457 142.289 184.598 142.261 184.739 142.229C184.864 142.2 184.993 142.176 185.117 142.16C185.17 142.152 185.23 142.144 185.278 142.144C185.463 142.12 185.641 142.116 185.826 142.116C186.389 142.116 186.92 142.204 187.432 142.361C187.766 142.466 188.092 142.607 188.394 142.768C190.084 143.686 191.231 145.473 191.231 147.525V158.36C191.231 158.634 191.239 158.908 191.255 159.177C191.271 159.487 191.291 159.793 191.328 160.095C191.352 160.324 191.38 160.554 191.416 160.775C191.452 161.021 191.497 161.266 191.549 161.5C191.549 161.544 191.557 161.588 191.573 161.624C191.609 161.826 191.654 162.023 191.714 162.216C191.75 162.393 191.795 162.566 191.847 162.735C191.907 162.937 191.964 163.134 192.032 163.327C192.104 163.556 192.181 163.77 192.27 163.995C192.338 164.18 192.41 164.365 192.483 164.543C192.543 164.683 192.608 164.832 192.684 164.973C192.922 165.508 193.187 166.02 193.493 166.507C193.61 166.7 193.731 166.901 193.863 167.09C193.96 167.247 194.065 167.392 194.173 167.541C194.334 167.787 194.515 168.024 194.709 168.253C194.841 168.422 194.974 168.579 195.115 168.744C195.264 168.914 195.417 169.087 195.582 169.256C197.953 171.759 201.14 173.502 204.71 174.041V174.057L204.791 180.69C204.791 180.69 204.783 180.706 204.791 180.715C203.797 189.658 196.202 196.633 187.001 196.633H157.696C155.385 196.633 152.797 195.003 152.797 192.817V172.025L152.805 172.029ZM260.536 193.956C260.536 195.534 259.248 196.83 257.662 196.83H227.073C226.493 196.83 225.926 196.802 225.354 196.75C225.097 196.726 224.827 196.689 224.569 196.653C224.412 196.629 224.259 196.609 224.102 196.581C223.909 196.552 223.716 196.52 223.531 196.476C223.442 196.46 223.362 196.448 223.277 196.424C223.092 196.387 222.915 196.343 222.738 196.299C222.605 196.271 222.472 196.23 222.339 196.194C222.182 196.15 222.03 196.106 221.873 196.061C221.8 196.037 221.724 196.017 221.651 195.989C221.43 195.921 221.212 195.848 221.007 195.776C220.778 195.695 220.548 195.607 220.327 195.51C220.21 195.466 220.082 195.413 219.965 195.353C219.751 195.273 219.542 195.176 219.337 195.063C219.337 195.063 219.334 195.063 219.329 195.063C219.12 194.967 218.914 194.862 218.713 194.753C218.552 194.673 218.387 194.584 218.23 194.488C218.045 194.383 217.852 194.274 217.675 194.162C217.135 193.828 216.616 193.465 216.125 193.079C215.968 192.962 215.815 192.833 215.658 192.709C215.034 192.198 214.451 191.634 213.907 191.042C213.783 190.918 213.662 190.785 213.553 190.644C213.428 190.511 213.316 190.378 213.211 190.245C213.054 190.06 212.909 189.867 212.76 189.674C212.619 189.481 212.479 189.296 212.346 189.102C212.213 188.901 212.072 188.696 211.947 188.487C211.814 188.277 211.69 188.064 211.561 187.851C211.533 187.814 211.508 187.77 211.492 187.734C211.388 187.557 211.291 187.38 211.195 187.199L211.062 186.933C210.989 186.784 210.913 186.635 210.848 186.482C210.804 186.402 210.768 186.317 210.736 186.237C210.639 186.027 210.543 185.814 210.462 185.601C210.357 185.355 210.269 185.11 210.18 184.86C210.172 184.832 210.156 184.808 210.156 184.78C210.068 184.542 209.987 184.297 209.919 184.047C209.838 183.79 209.762 183.52 209.697 183.246C209.629 182.981 209.573 182.711 209.52 182.437C209.408 181.89 209.319 181.334 209.267 180.771C209.259 180.763 209.267 180.755 209.267 180.755L209.363 174.102V174.094C213.215 173.546 216.632 171.618 219.083 168.825C219.232 168.664 219.373 168.491 219.506 168.322C219.542 168.294 219.566 168.261 219.578 168.233C219.703 168.068 219.832 167.907 219.957 167.738C220.09 167.553 220.23 167.36 220.355 167.167C220.621 166.78 220.858 166.39 221.08 165.975C221.176 165.79 221.273 165.613 221.369 165.428C221.486 165.19 221.607 164.945 221.704 164.703C221.772 164.571 221.82 164.43 221.881 164.281C221.949 164.14 221.997 163.991 222.05 163.838C222.138 163.609 222.219 163.363 222.295 163.126C222.311 163.102 222.319 163.081 222.319 163.053C222.38 162.86 222.436 162.667 222.48 162.474C222.605 162.023 222.71 161.564 222.782 161.089C222.81 160.948 222.835 160.807 222.851 160.667C222.895 160.429 222.919 160.192 222.939 159.954C222.967 159.701 222.983 159.451 223 159.197C223.016 158.932 223.024 158.658 223.024 158.38C223.024 158.372 223.016 158.372 223.016 158.364V158.24L222.831 147.739V147.694C222.839 146.962 222.987 146.265 223.261 145.626C223.535 144.982 223.937 144.402 224.424 143.915C225.402 142.929 226.751 142.329 228.24 142.329H228.248C228.425 142.329 228.61 142.337 228.787 142.357C228.848 142.357 228.9 142.365 228.956 142.373C229.081 142.39 229.21 142.41 229.327 142.442C229.504 142.47 229.677 142.514 229.846 142.575C229.971 142.603 230.099 142.647 230.216 142.707C230.285 142.724 230.341 142.752 230.401 142.78C232.349 143.653 233.645 145.694 233.645 147.924V153.74C233.645 155.112 234.273 156.332 235.251 157.141C235.69 157.503 236.193 157.777 236.749 157.95C237.163 158.083 237.61 158.151 238.061 158.151H247.33C247.567 158.151 247.805 158.143 248.042 158.123C248.28 158.107 248.509 158.079 248.739 158.05H248.747C248.976 158.014 249.198 157.97 249.423 157.918C249.648 157.865 249.866 157.805 250.083 157.74C250.276 157.68 250.469 157.616 250.655 157.547C250.707 157.523 250.751 157.503 250.803 157.487C250.973 157.418 251.146 157.346 251.307 157.274C251.464 157.193 251.617 157.109 251.773 157.036C251.886 156.968 251.995 156.911 252.1 156.843C252.24 156.762 252.381 156.674 252.522 156.585C252.832 156.799 253.138 157.028 253.432 157.261C253.73 157.499 254.015 157.744 254.293 157.986C254.575 158.24 254.849 158.497 255.11 158.763C255.376 159.028 255.629 159.298 255.875 159.58C255.903 159.608 255.927 159.64 255.947 159.66C256.157 159.906 256.362 160.155 256.563 160.409C256.579 160.425 256.591 160.445 256.607 160.469C256.764 160.679 256.917 160.884 257.066 161.093C257.135 161.182 257.199 161.27 257.251 161.359C257.461 161.661 257.658 161.967 257.843 162.285C258.036 162.602 258.221 162.929 258.39 163.255C259.131 164.655 259.686 166.144 260.045 167.694C260.089 167.855 260.117 168.028 260.157 168.189C260.186 168.314 260.21 168.447 260.23 168.583C260.258 168.744 260.29 168.909 260.31 169.075C260.347 169.268 260.371 169.461 260.391 169.658C260.415 169.835 260.435 170.012 260.451 170.193C260.479 170.459 260.495 170.733 260.512 171.01C260.528 171.308 260.536 171.61 260.536 171.908V193.985V193.956ZM252.289 148.809C252.273 150.149 251.717 151.357 250.836 152.238L250.812 152.263C249.914 153.144 248.686 153.691 247.338 153.691L238.097 153.728V147.727C238.097 142.289 233.682 137.87 228.24 137.87C222.798 137.87 218.383 142.285 218.383 147.727V147.735C218.383 147.735 218.391 147.735 218.391 147.743C218.391 147.751 218.391 147.751 218.383 147.759V147.767L218.568 158.376C218.568 159.519 218.399 160.614 218.085 161.653C218.069 161.741 218.041 161.822 218.013 161.91C217.852 162.393 217.663 162.868 217.449 163.327C217.288 163.661 217.099 163.995 216.91 164.305C216.725 164.615 216.515 164.921 216.302 165.211C215.968 165.653 215.606 166.072 215.219 166.454C214.833 166.837 214.41 167.203 213.976 167.537C213.678 167.75 213.376 167.96 213.058 168.153C212.748 168.346 212.422 168.523 212.088 168.688C211.754 168.845 211.412 168.99 211.066 169.119C210.716 169.252 210.353 169.364 209.991 169.453C209.081 169.69 208.124 169.815 207.137 169.815H207.129C200.822 169.815 195.687 164.687 195.687 158.372V147.537C195.687 142.104 191.271 137.68 185.83 137.68C180.388 137.68 175.973 142.104 175.973 147.537V153.51H166.732C165.391 153.51 164.16 152.963 163.262 152.081C163.246 152.073 163.246 152.065 163.238 152.057C162.357 151.168 161.801 149.968 161.785 148.628L161.757 146.559C161.66 139.001 164.53 131.872 169.843 126.491C170.881 125.441 171.984 124.483 173.147 123.625C173.332 123.485 173.518 123.352 173.703 123.227C173.96 123.042 174.222 122.865 174.48 122.7C174.681 122.559 174.878 122.434 175.087 122.305C176.504 121.432 177.993 120.683 179.535 120.084C179.78 119.987 180.018 119.898 180.259 119.81C180.275 119.802 180.287 119.794 180.304 119.794C180.561 119.705 180.831 119.609 181.088 119.528H181.096C181.447 119.415 181.793 119.307 182.143 119.21C182.497 119.114 182.847 119.017 183.201 118.928C183.878 118.771 184.55 118.631 185.23 118.522C185.355 118.498 185.484 118.478 185.608 118.462C185.89 118.417 186.172 118.381 186.454 118.349C186.824 118.305 187.194 118.268 187.564 118.236C187.838 118.212 188.112 118.2 188.394 118.184C188.526 118.176 188.667 118.168 188.808 118.168C189.142 118.152 189.468 118.144 189.802 118.144H224.074C225.105 118.144 226.135 118.196 227.141 118.309C227.407 118.337 227.68 118.377 227.95 118.413C228.904 118.538 229.846 118.715 230.772 118.949C230.772 118.949 230.777 118.949 230.788 118.949C231.086 119.021 231.387 119.097 231.685 119.178C231.73 119.194 231.782 119.206 231.834 119.222L233.279 119.681C234.503 120.104 235.694 120.607 236.849 121.186C236.893 121.202 236.93 121.223 236.974 121.255C237.211 121.38 237.449 121.508 237.686 121.633C237.916 121.766 238.153 121.899 238.383 122.032L239.071 122.454C239.723 122.861 240.355 123.299 240.975 123.758C241.003 123.782 241.043 123.811 241.079 123.839C241.51 124.165 241.933 124.507 242.347 124.861C242.54 125.026 242.726 125.187 242.911 125.352C242.983 125.421 243.068 125.485 243.14 125.561C243.49 125.879 243.828 126.205 244.162 126.548C249.512 131.973 252.401 139.145 252.297 146.757L252.273 148.817L252.289 148.809ZM189.814 113.7C189.267 113.7 188.724 113.716 188.176 113.736C187.259 113.781 186.345 113.869 185.443 113.99C185.162 114.034 184.888 114.07 184.606 114.115C184.035 114.203 183.471 114.308 182.916 114.433C184.924 103.042 194.845 94.5215 206.723 94.5215C213.376 94.5215 219.425 97.198 223.805 101.569C227.214 104.962 229.608 109.373 230.51 114.328C229.472 114.119 228.421 113.966 227.363 113.861C227.161 113.837 226.968 113.825 226.771 113.809C225.881 113.736 224.992 113.696 224.09 113.696H189.818L189.814 113.7ZM110.786 105.835C110.653 105.687 110.52 105.534 110.387 105.377C110.105 105.059 109.824 104.733 109.542 104.382C109.26 104.04 108.962 103.686 108.669 103.324C108.608 103.251 108.544 103.167 108.483 103.094C108.246 102.797 108.008 102.495 107.763 102.185C107.296 101.585 106.813 100.953 106.334 100.297C106.032 99.8826 105.718 99.452 105.408 99.0092C104.229 97.3429 103.03 95.5196 101.858 93.5394C101.673 93.2295 101.488 92.9115 101.303 92.5895C101.118 92.2635 100.933 91.9375 100.756 91.6115C100.57 91.2855 100.385 90.9514 100.208 90.6173C100.023 90.2752 99.8379 89.9291 99.6528 89.5789C99.3509 88.9953 99.0531 88.3916 98.7552 87.7838C97.8214 85.88 96.94 83.8636 96.131 81.7505C95.9901 81.4003 95.8573 81.0461 95.7325 80.692C95.5836 80.2935 95.4427 79.891 95.3019 79.4845C95.169 79.0981 95.0362 78.7077 94.9034 78.3052C94.8954 78.277 94.8873 78.2448 94.8752 78.2166C94.7585 77.8544 94.6378 77.4841 94.5251 77.1058C94.3842 76.655 94.2514 76.2002 94.1266 75.7413C94.0099 75.3429 93.8972 74.9404 93.7925 74.5419C93.547 73.6162 93.3176 72.6744 93.1123 71.7245C93.0238 71.318 92.9352 70.9034 92.8547 70.4889C92.7742 70.1025 92.6978 69.7201 92.6334 69.3257C92.3073 67.5386 92.0498 65.7113 91.8686 63.8357C91.8405 63.6063 91.8244 63.3688 91.8002 63.1314C91.772 62.7772 91.7398 62.4109 91.7197 62.0487C91.6915 61.6623 91.6674 61.2799 91.6513 60.8855C91.6352 60.6641 91.6231 60.4427 91.6151 60.2173V60.0845C91.5909 59.6901 91.5869 59.2916 91.5788 58.8931C91.5708 58.4625 91.5627 58.0318 91.5627 57.5971C91.5627 24.8909 104.189 4.00571 112.883 4.00571C114.46 4.00571 115.648 4.51687 116.618 5.59957C119.588 8.93218 119.447 16.6318 119.137 19.3164L119.121 19.4492L119.314 85.9847C119.314 87.2083 120.309 88.1984 121.536 88.1984H121.544C122.768 88.1984 123.758 87.1962 123.758 85.9686L123.73 77.6974C123.73 77.6974 123.73 77.7055 123.738 77.7055C124.47 79.082 125.243 80.3217 126.036 81.4245C126.193 81.6458 126.354 81.8632 126.511 82.0685C128.089 84.1815 129.682 85.7673 130.995 86.8943C127.779 92.6137 125.207 98.7597 123.371 105.248C120.067 106.109 117.02 107.61 114.376 109.627C114.36 109.627 114.352 109.611 114.34 109.599C114.154 109.422 113.945 109.22 113.732 108.999C113.293 108.556 112.798 108.041 112.259 107.457C112.045 107.22 111.816 106.966 111.579 106.709C111.325 106.435 111.059 106.137 110.802 105.835H110.786ZM121.818 158.493C117.624 153.567 115.096 147.191 115.096 140.24V135.37H117.177L139.519 135.378H150.704C151.908 135.378 152.987 134.473 153.047 133.269C153.111 131.985 152.097 130.931 150.825 130.931H108.652V129.997C108.652 128.693 108.769 127.417 109.007 126.173H137.624C138.702 126.173 139.688 125.445 139.89 124.382C140.159 122.961 139.073 121.726 137.708 121.726H110.343V121.718C111.579 118.82 113.442 116.264 115.76 114.203C116.006 113.986 116.259 113.773 116.513 113.563C119.512 111.136 123.198 109.711 127.026 109.224L128.39 109.051C129.296 108.939 130.206 108.878 131.119 108.878H150.254C158.473 108.878 165.665 114.457 167.778 122.289V122.297C167.4 122.639 167.037 122.994 166.675 123.356C160.525 129.594 157.197 137.849 157.309 146.608L157.338 148.676C157.346 149.063 157.374 149.445 157.426 149.819V149.848C157.45 150.017 157.478 150.19 157.515 150.351C157.587 150.745 157.684 151.119 157.812 151.494C157.873 151.671 157.937 151.844 158.006 152.013C158.078 152.19 158.155 152.363 158.227 152.524C158.307 152.693 158.388 152.858 158.481 153.019C153.184 156.762 149.634 162.369 148.64 168.499L143.238 168.483C136.984 168.459 131.188 166.386 126.515 162.904C124.78 161.616 123.202 160.131 121.81 158.489L121.818 158.493ZM127.167 202.546C127.086 202.01 127.01 201.471 126.954 200.932C126.917 200.666 126.885 200.396 126.857 200.123C126.813 199.724 126.776 199.314 126.74 198.899C126.668 198.106 126.616 197.305 126.583 196.504C126.567 196.15 126.555 195.792 126.547 195.446C126.531 194.942 126.523 194.443 126.523 193.94V168.257C131.413 171.208 137.129 172.91 143.234 172.934L148.362 172.95V192.825C148.362 195.671 149.964 197.977 152.178 199.422C151.175 199.591 150.193 199.756 149.215 199.925C148.096 200.11 146.994 200.296 145.903 200.489C144.51 200.734 141.93 201.177 138.67 201.757C138.086 201.861 137.471 201.966 136.839 202.075C135.993 202.224 135.112 202.376 134.202 202.541C133.921 202.594 133.639 202.638 133.349 202.69H133.333C132.918 202.763 132.496 202.839 132.073 202.912C130.556 203.185 128.97 203.459 127.36 203.749C127.288 203.35 127.227 202.948 127.167 202.55V202.546ZM286.633 193.94C286.633 225.765 260.733 251.657 228.908 251.657H219.232C217.188 251.657 215.525 253.315 215.525 255.364C215.525 257.413 217.184 259.071 219.232 259.071H228.908C233.975 259.071 238.906 258.492 243.647 257.389V269.282L241.514 266.976C240.677 266.07 239.268 266.018 238.371 266.859C237.465 267.696 237.413 269.097 238.254 270.003L243.647 275.819V297.509L240.959 294.796C240.093 293.931 238.685 293.923 237.815 294.788C236.942 295.653 236.934 297.062 237.799 297.931L243.647 303.816V351.12H162.723V317.396L169.452 307.442C170.141 306.428 169.875 305.047 168.861 304.359C167.838 303.671 166.458 303.937 165.77 304.951L162.723 309.455V292.788L169.46 282.709C170.141 281.687 169.867 280.306 168.845 279.626C167.83 278.946 166.442 279.22 165.762 280.234L162.723 284.782V255.4C169.465 257.771 176.705 259.059 184.248 259.059H190.486C192.531 259.059 194.193 257.405 194.193 255.352C194.193 253.299 192.535 251.645 190.486 251.645H184.248C157.402 251.645 134.778 233.223 128.354 208.357C128.33 208.269 128.31 208.172 128.286 208.084C129.819 207.818 131.333 207.548 132.79 207.291C133.273 207.202 133.752 207.122 134.219 207.037C135.406 206.828 136.553 206.623 137.644 206.438C138.304 206.321 138.932 206.208 139.539 206.104C139.62 206.087 139.696 206.075 139.777 206.059C140.014 206.015 140.252 205.979 140.489 205.934C140.562 205.918 140.646 205.91 140.719 205.898C141.298 205.794 141.846 205.697 142.365 205.608C142.534 205.58 142.707 205.548 142.876 205.52C143.142 205.476 143.403 205.431 143.645 205.387C144.039 205.315 144.41 205.254 144.756 205.194C145.066 205.134 145.355 205.081 145.621 205.037C145.693 205.021 145.762 205.013 145.83 205.001C146.04 204.973 146.225 204.932 146.402 204.904C146.519 204.88 146.631 204.86 146.736 204.844C147.625 204.687 148.531 204.534 149.441 204.377C151.051 204.103 152.693 203.837 154.359 203.56C147.742 206.82 141.471 210.37 135.619 214.194C134.589 214.862 134.299 216.238 134.967 217.269C135.398 217.921 136.11 218.275 136.835 218.275C137.249 218.275 137.672 218.158 138.05 217.913C147.275 211.887 157.575 206.538 168.684 201.982H168.692C168.921 203.471 169.211 204.944 169.553 206.397C169.73 207.166 169.939 207.931 170.161 208.688C170.265 209.05 170.374 209.412 170.487 209.778C170.591 210.12 170.7 210.458 170.813 210.801C171.07 211.602 171.352 212.386 171.666 213.163C171.779 213.461 171.896 213.763 172.02 214.061C172.169 214.455 172.33 214.838 172.503 215.216C172.636 215.518 172.769 215.824 172.902 216.125C173.538 217.51 174.23 218.866 174.979 220.195C175.558 221.233 176.17 222.239 176.822 223.233C177.273 223.914 177.732 224.598 178.215 225.262C178.46 225.588 178.702 225.922 178.947 226.248C179.201 226.582 179.45 226.908 179.704 227.226C180.469 228.196 181.265 229.138 182.111 230.056C182.392 230.358 182.674 230.663 182.964 230.965C183.246 231.263 183.535 231.557 183.829 231.855C184.127 232.153 184.421 232.438 184.727 232.728C185.025 233.018 185.327 233.3 185.637 233.581C195.574 242.65 208.466 247.644 221.937 247.644C251.645 247.644 275.814 223.471 275.814 193.767C275.814 193.272 275.806 192.773 275.79 192.278C275.782 191.944 275.766 191.618 275.754 191.284C275.754 191.179 275.746 191.071 275.738 190.958C275.714 190.571 275.693 190.181 275.665 189.795C275.665 189.771 275.665 189.742 275.657 189.722C275.629 189.3 275.589 188.885 275.544 188.462V188.446H275.553C275.754 188.418 275.951 188.394 276.152 188.374C276.362 188.346 276.559 188.313 276.768 188.285C280.149 188.108 283.421 187.907 286.625 187.678V193.924L286.633 193.94ZM286.633 181.781L285.41 182.071C283.892 182.425 282.423 182.747 281.006 183.025C280.282 183.174 279.561 183.307 278.865 183.431C277.955 183.596 277.07 183.741 276.213 183.874C275.673 183.902 275.122 183.934 274.583 183.955C274.035 183.983 273.488 184.015 272.928 184.035C272.727 184.051 272.53 184.059 272.321 184.063C271.781 184.091 271.23 184.116 270.682 184.136C269.749 184.18 268.799 184.224 267.853 184.26C266.903 184.297 265.949 184.341 264.979 184.377V173.128L269.173 173.111C275.589 173.087 281.586 171.2 286.633 167.968V181.765V181.781ZM286.633 162.522C281.831 166.354 275.754 168.656 269.161 168.68L264.758 168.696H264.75C264.424 166.39 263.756 164.176 262.786 162.095C261.156 158.634 258.688 155.591 255.553 153.277C255.561 153.277 255.561 153.269 255.561 153.269V153.261C255.658 153.096 255.738 152.935 255.814 152.77C255.887 152.621 255.955 152.468 256.024 152.311C256.104 152.118 256.181 151.916 256.245 151.719C256.37 151.357 256.467 150.995 256.543 150.616C256.579 150.459 256.611 150.306 256.632 150.149C256.64 150.089 256.648 150.025 256.656 149.964C256.68 149.795 256.7 149.63 256.708 149.461C256.724 149.268 256.736 149.067 256.736 148.87L256.76 146.801C256.877 137.998 253.528 129.691 247.342 123.42C247.121 123.199 246.899 122.977 246.666 122.76C246.436 122.539 246.207 122.329 245.978 122.124C245.74 121.911 245.511 121.71 245.273 121.5C245.036 121.299 244.79 121.102 244.553 120.909V120.901C247.656 113.764 254.704 109.075 262.56 109.075H281.924C282.274 109.075 282.612 109.084 282.954 109.104C284.882 109.184 286.742 109.518 288.513 110.066C294.546 111.925 299.489 116.276 302.149 121.907H281.751C280.519 121.907 279.529 122.901 279.529 124.129C279.529 125.356 280.523 126.35 281.751 126.35H303.699C304.049 127.819 304.238 129.337 304.278 130.894H260.008C258.777 130.894 257.787 131.889 257.787 133.116C257.787 134.344 258.781 135.338 260.008 135.338H264.15L286.492 135.346H297.416L297.327 140.421C297.327 147.38 294.792 153.776 290.59 158.702C289.402 160.103 288.078 161.383 286.641 162.526L286.633 162.522Z" fill="#493424"/>
</g>
<defs>
<clipPath id="clip0_274_109">
<path d="M0 0H407V110.5C407 222.89 315.89 314 203.5 314V314C91.11 314 0 222.89 0 110.5V0Z" fill="white"/>
</clipPath>
</defs>
</svg>
